<svg id="Layer_1" data-name="Layer 1" xmlns="http://www.w3.org/2000/svg" viewBox="0 0 580.77 121.4"><defs><style>.cls-1{fill:#bf5827;}</style></defs><path class="cls-1" d="M189.54,94.93V0h22.09V117ZM173.92,0V101.4l20,20H151.83V0Z"/><path class="cls-1" d="M113.25,20.15H98.38V48.32H76.29V14.88L92.26,0h43.08V85.2L127,101.4h8.37v20h-59V88.57H98.38V101.4h5.35L113.25,83Z"/><polygon class="cls-1" points="580.77 121.4 518.53 121.4 518.53 22.09 496.44 22.09 496.44 0 518.53 0 540.62 0 540.62 101.4 558.68 101.4 558.68 68.71 580.77 68.71 580.77 121.4"/><polygon class="cls-1" points="454.36 121.4 454.36 0 476.44 0 476.44 41.85 496.44 41.85 496.44 61.85 476.44 61.85 476.44 101.4 507.34 101.4 507.34 121.4 454.36 121.4"/><polygon class="cls-1" points="286.03 121.4 228.12 121.4 228.12 72.54 250.21 72.54 250.21 101.4 263.94 101.4 263.94 68.61 228.87 42.17 228.87 0 285.44 0 285.44 31.34 265.39 31.34 265.39 20.15 250.96 20.15 250.96 33.91 286.03 60.27 286.03 121.4"/><path class="cls-1" d="M340.23,94.93V0h22.09V117ZM324.61,0V101.4l20,20H302.52V0Z"/><path class="cls-1" d="M415.77,20.15H400.9V48.32H378.81V14.88L394.78,0h43.08V85.2l-8.37,16.2h8.37v20H378.81V88.57H400.9V101.4h5.35L415.77,83Z"/><path class="cls-1" d="M37.71,94.93V51.21l14.9-14.9-14.9-14.9V0H59.8V117ZM22.09,0V103.33L40.16,121.4H0V0Z"/></svg>